<svg version="1.1" viewBox="0.0 0.0 354.6666666666667 301.7769028871391" fill="none" stroke="none" stroke-linecap="square" stroke-miterlimit="10" xmlns:xlink="http://www.w3.org/1999/xlink" xmlns="http://www.w3.org/2000/svg"><clipPath id="p.0"><path d="m0 0l354.66666 0l0 301.77692l-354.66666 0l0 -301.77692z" clip-rule="nonzero"/></clipPath><g clip-path="url(#p.0)"><path fill="#000000" fill-opacity="0.0" d="m0 0l354.66666 0l0 301.77692l-354.66666 0z" fill-rule="evenodd"/><path fill="#000000" fill-opacity="0.0" d="m238.74323 150.21786c21.066864 -21.520935 75.960815 -22.932953 89.280304 4.2913513c9.640045 19.70369 -34.595367 43.585114 -54.61798 35.40944c-4.0737305 -1.6633911 -8.735321 -8.07373 -6.30249 -11.803146c8.965118 -13.743118 34.78488 3.3456726 46.21643 15.023621c11.399445 11.645172 9.293121 37.70967 -2.1016846 49.359573c-20.830536 21.29689 -58.590286 22.3228 -87.1812 15.021011c-18.091782 -4.6204376 -31.187607 -25.511047 -35.71315 -43.992126c-2.6868591 -10.972397 16.452362 -21.53418 27.30899 -19.314972c9.27655 1.896225 14.190353 12.8776245 22.059937 18.24147c8.283997 5.6463165 19.452057 5.3648376 29.410675 5.3648376" fill-rule="evenodd"/><path stroke="#ff9143" stroke-width="8.0" stroke-linejoin="round" stroke-linecap="butt" d="m238.74323 150.21786c21.066864 -21.520935 75.960815 -22.932953 89.280304 4.2913513c9.640045 19.70369 -34.595367 43.585114 -54.61798 35.40944c-4.0737305 -1.6633911 -8.735321 -8.07373 -6.30249 -11.803146c8.965118 -13.743118 34.78488 3.3456726 46.21643 15.023621c11.399445 11.645172 9.293121 37.70967 -2.1016846 49.359573c-20.830536 21.29689 -58.590286 22.3228 -87.1812 15.021011c-18.091782 -4.6204376 -31.187607 -25.511047 -35.71315 -43.992126c-2.6868591 -10.972397 16.452362 -21.53418 27.30899 -19.314972c9.27655 1.896225 14.190353 12.8776245 22.059937 18.24147c8.283997 5.6463165 19.452057 5.3648376 29.410675 5.3648376" fill-rule="evenodd"/><path fill="#000000" fill-opacity="0.0" d="m63.451443 206.12073c-12.102619 0 -26.220242 8.903336 -30.044617 20.385834c-4.9241447 14.784485 9.192257 37.98163 24.679787 39.7034c37.743076 4.1959534 79.87662 -23.89862 98.71654 -56.871384c15.950378 -27.915588 28.03769 -58.6062 34.338593 -90.13385c3.5858917 -17.942657 12.474213 -38.358658 4.291336 -54.72441c-7.396408 -14.792824 -29.828064 -20.961525 -46.14174 -18.24147c-10.98793 1.8320656 -21.150696 13.626247 -22.532806 24.679787c-2.6982803 21.57965 17.996567 45.705254 38.62993 52.57743c44.937103 14.966827 146.34058 -16.108398 128.76114 -60.089237c-4.061249 -10.160591 -22.911621 -12.240215 -32.188965 -6.438324c-14.378555 8.992092 -21.501556 28.240574 -23.606308 45.06824c-3.644333 29.13684 2.8155212 59.496674 -4.2939606 87.98688c-6.564377 26.305817 -24.033966 53.332947 -48.286087 65.45407c-22.771698 11.381195 -58.18258 12.636322 -76.18372 -5.3648376c-11.991127 -11.991119 -26.933609 -28.437225 -23.6063 -45.065613c6.6101837 -33.034744 67.17392 6.438324 100.86351 6.438324" fill-rule="evenodd"/><path stroke="#ff9143" stroke-width="8.0" stroke-linejoin="round" stroke-linecap="butt" d="m63.451443 206.12073c-12.102619 0 -26.220242 8.903336 -30.044617 20.385834c-4.9241447 14.784485 9.192257 37.98163 24.679787 39.7034c37.743076 4.1959534 79.87662 -23.89862 98.71654 -56.871384c15.950378 -27.915588 28.03769 -58.6062 34.338593 -90.13385c3.5858917 -17.942657 12.474213 -38.358658 4.291336 -54.72441c-7.396408 -14.792824 -29.828064 -20.961525 -46.14174 -18.24147c-10.98793 1.8320656 -21.150696 13.626247 -22.532806 24.679787c-2.6982803 21.57965 17.996567 45.705254 38.62993 52.57743c44.937103 14.966827 146.34058 -16.108398 128.76114 -60.089237c-4.061249 -10.160591 -22.911621 -12.240215 -32.188965 -6.438324c-14.378555 8.992092 -21.501556 28.240574 -23.606308 45.06824c-3.644333 29.13684 2.8155212 59.496674 -4.2939606 87.98688c-6.564377 26.305817 -24.033966 53.332947 -48.286087 65.45407c-22.771698 11.381195 -58.18258 12.636322 -76.18372 -5.3648376c-11.991127 -11.991119 -26.933609 -28.437225 -23.6063 -45.065613c6.6101837 -33.034744 67.17392 6.438324 100.86351 6.438324" fill-rule="evenodd"/><path fill="#000000" fill-opacity="0.0" d="m59.413143 200.91862c-12.102623 0 -26.220242 8.903336 -30.044619 20.385818c-4.924143 14.784485 9.192259 37.98163 24.679789 39.7034c37.74307 4.1959534 79.87662 -23.89862 98.71654 -56.871384c15.950378 -27.915588 28.037674 -58.6062 34.338593 -90.13385c3.5858917 -17.94265 12.474213 -38.358658 4.291336 -54.72441c-7.3964233 -14.792824 -29.828064 -20.961525 -46.14174 -18.24147c-10.98793 1.8320694 -21.150688 13.626247 -22.532806 24.679787c-2.6982803 21.57965 17.996567 45.705254 38.629913 52.57743c44.93712 14.966827 146.34059 -16.108398 128.76115 -60.089237c-4.061249 -10.160591 -22.911621 -12.240215 -32.188965 -6.43832c-14.378555 8.992088 -21.501556 28.24057 -23.606308 45.068237c-3.644333 29.13684 2.8155212 59.496674 -4.2939606 87.98688c-6.564377 26.305817 -24.033966 53.332947 -48.286087 65.45407c-22.771698 11.381195 -58.18258 12.636322 -76.18372 -5.3648376c-11.991127 -11.991119 -26.933609 -28.437225 -23.6063 -45.065613c6.610176 -33.034744 67.17392 6.438324 100.86351 6.438324" fill-rule="evenodd"/><path stroke="#125cd3" stroke-width="8.0" stroke-linejoin="round" stroke-linecap="butt" d="m59.413143 200.91862c-12.102623 0 -26.220242 8.903336 -30.044619 20.385818c-4.924143 14.784485 9.192259 37.98163 24.679789 39.7034c37.74307 4.1959534 79.87662 -23.89862 98.71654 -56.871384c15.950378 -27.915588 28.037674 -58.6062 34.338593 -90.13385c3.5858917 -17.94265 12.474213 -38.358658 4.291336 -54.72441c-7.3964233 -14.792824 -29.828064 -20.961525 -46.14174 -18.24147c-10.98793 1.8320694 -21.150688 13.626247 -22.532806 24.679787c-2.6982803 21.57965 17.996567 45.705254 38.629913 52.57743c44.93712 14.966827 146.34059 -16.108398 128.76115 -60.089237c-4.061249 -10.160591 -22.911621 -12.240215 -32.188965 -6.43832c-14.378555 8.992088 -21.501556 28.24057 -23.606308 45.068237c-3.644333 29.13684 2.8155212 59.496674 -4.2939606 87.98688c-6.564377 26.305817 -24.033966 53.332947 -48.286087 65.45407c-22.771698 11.381195 -58.18258 12.636322 -76.18372 -5.3648376c-11.991127 -11.991119 -26.933609 -28.437225 -23.6063 -45.065613c6.610176 -33.034744 67.17392 6.438324 100.86351 6.438324" fill-rule="evenodd"/><path fill="#000000" fill-opacity="0.0" d="m233.53879 144.66205c21.52095 -21.520935 77.598145 -22.932953 91.20474 4.291336c9.847809 19.703705 -35.341095 43.58513 -55.795288 35.409454c-4.1615295 -1.6633911 -8.923584 -8.07373 -6.438324 -11.803146c9.158356 -13.743118 35.534668 3.3456726 47.212616 15.023621c11.645142 11.645157 9.493408 37.70967 -2.1470032 49.359573c-21.27951 21.29689 -59.85318 22.3228 -89.06036 15.020996c-18.48175 -4.6204376 -31.859833 -25.511032 -36.48294 -43.992126c-2.7447662 -10.972397 16.806992 -21.534164 27.897644 -19.314957c9.476501 1.896225 14.496231 12.8776245 22.53543 18.24147c8.462555 5.6463013 19.871338 5.3648376 30.044617 5.3648376" fill-rule="evenodd"/><path stroke="#125cd3" stroke-width="8.0" stroke-linejoin="round" stroke-linecap="butt" d="m233.53879 144.66205c21.52095 -21.520935 77.598145 -22.932953 91.20474 4.291336c9.847809 19.703705 -35.341095 43.58513 -55.795288 35.409454c-4.1615295 -1.6633911 -8.923584 -8.07373 -6.438324 -11.803146c9.158356 -13.743118 35.534668 3.3456726 47.212616 15.023621c11.645142 11.645157 9.493408 37.70967 -2.1470032 49.359573c-21.27951 21.29689 -59.85318 22.3228 -89.06036 15.020996c-18.48175 -4.6204376 -31.859833 -25.511032 -36.48294 -43.992126c-2.7447662 -10.972397 16.806992 -21.534164 27.897644 -19.314957c9.476501 1.896225 14.496231 12.8776245 22.53543 18.24147c8.462555 5.6463013 19.871338 5.3648376 30.044617 5.3648376" fill-rule="evenodd"/></g></svg>