<svg version="1.1" viewBox="0.0 0.0 354.6666666666667 301.7769028871391" fill="none" stroke="none" stroke-linecap="square" stroke-miterlimit="10" xmlns:xlink="http://www.w3.org/1999/xlink" xmlns="http://www.w3.org/2000/svg"><clipPath id="p.0"><path d="m0 0l354.66666 0l0 301.77692l-354.66666 0l0 -301.77692z" clip-rule="nonzero"/></clipPath><g clip-path="url(#p.0)"><path fill="#000000" fill-opacity="0.0" d="m0 0l354.66666 0l0 301.77692l-354.66666 0z" fill-rule="evenodd"/><path fill="#000000" fill-opacity="0.0" d="m242.34683 150.74185c22.562561 -22.216064 81.35388 -23.67369 95.61902 4.429947c10.324493 20.340134 -37.051575 44.99292 -58.495758 36.553177c-4.3629456 -1.7171173 -9.355499 -8.334503 -6.749939 -12.184387c9.601624 -14.187027 37.254547 3.4537354 49.49768 15.508881c12.208801 12.021301 9.952942 38.92769 -2.250885 50.953903c-22.309448 21.984756 -62.75009 23.043808 -93.37088 15.50618c-19.376266 -4.769684 -33.40187 -26.335052 -38.24872 -45.413086c-2.8776245 -11.3267975 17.620453 -22.229721 29.247879 -19.938828c9.935165 1.9574738 15.197845 13.293564 23.626144 18.830673c8.872147 5.8286743 20.83313 5.538101 31.49878 5.538101" fill-rule="evenodd"/><path stroke="#125cd3" stroke-width="16.0" stroke-linejoin="round" stroke-linecap="butt" d="m242.34683 150.74185c22.562561 -22.216064 81.35388 -23.67369 95.61902 4.429947c10.324493 20.340134 -37.051575 44.99292 -58.495758 36.553177c-4.3629456 -1.7171173 -9.355499 -8.334503 -6.749939 -12.184387c9.601624 -14.187027 37.254547 3.4537354 49.49768 15.508881c12.208801 12.021301 9.952942 38.92769 -2.250885 50.953903c-22.309448 21.984756 -62.75009 23.043808 -93.37088 15.50618c-19.376266 -4.769684 -33.40187 -26.335052 -38.24872 -45.413086c-2.8776245 -11.3267975 17.620453 -22.229721 29.247879 -19.938828c9.935165 1.9574738 15.197845 13.293564 23.626144 18.830673c8.872147 5.8286743 20.83313 5.538101 31.49878 5.538101" fill-rule="evenodd"/><path fill="#000000" fill-opacity="0.0" d="m64.31883 208.82028c-12.440285 0 -26.951786 9.0529175 -30.882862 20.728317c-5.0615273 15.032852 9.448723 38.619736 25.368355 40.370438c38.7961 4.266449 82.10516 -24.30014 101.47073 -57.826843c16.395386 -28.384567 28.819931 -59.59079 35.29663 -91.6481c3.6859436 -18.244095 12.822235 -39.003082 4.4110565 -55.643784c-7.602768 -15.041344 -30.660263 -21.313675 -47.429077 -18.547928c-11.294495 1.8628502 -21.740799 13.855171 -23.161484 25.094414c-2.7735596 21.942184 18.498688 46.4731 39.707703 53.460724c46.190857 15.218269 150.4235 -16.37902 132.35358 -61.098736c-4.1745605 -10.331287 -23.550842 -12.44585 -33.087036 -6.546482c-14.779709 9.143158 -22.10144 28.715012 -24.264908 45.825386c-3.7460175 29.626343 2.8940735 60.496216 -4.4137726 89.46506c-6.747528 26.747742 -24.704514 54.228943 -49.63327 66.553696c-23.407028 11.572418 -59.805878 12.848602 -78.30925 -5.454956c-12.325676 -12.192581 -27.685051 -28.914978 -24.264915 -45.822723c6.7946014 -33.58972 69.04807 6.5464935 103.677605 6.5464935" fill-rule="evenodd"/><path stroke="#125cd3" stroke-width="16.0" stroke-linejoin="round" stroke-linecap="butt" d="m64.31883 208.82028c-12.440285 0 -26.951786 9.0529175 -30.882862 20.728317c-5.0615273 15.032852 9.448723 38.619736 25.368355 40.370438c38.7961 4.266449 82.10516 -24.30014 101.47073 -57.826843c16.395386 -28.384567 28.819931 -59.59079 35.29663 -91.6481c3.6859436 -18.244095 12.822235 -39.003082 4.4110565 -55.643784c-7.602768 -15.041344 -30.660263 -21.313675 -47.429077 -18.547928c-11.294495 1.8628502 -21.740799 13.855171 -23.161484 25.094414c-2.7735596 21.942184 18.498688 46.4731 39.707703 53.460724c46.190857 15.218269 150.4235 -16.37902 132.35358 -61.098736c-4.1745605 -10.331287 -23.550842 -12.44585 -33.087036 -6.546482c-14.779709 9.143158 -22.10144 28.715012 -24.264908 45.825386c-3.7460175 29.626343 2.8940735 60.496216 -4.4137726 89.46506c-6.747528 26.747742 -24.704514 54.228943 -49.63327 66.553696c-23.407028 11.572418 -59.805878 12.848602 -78.30925 -5.454956c-12.325676 -12.192581 -27.685051 -28.914978 -24.264915 -45.822723c6.7946014 -33.58972 69.04807 6.5464935 103.677605 6.5464935" fill-rule="evenodd"/><path fill="#000000" fill-opacity="0.0" d="m59.413143 200.91862c-12.102623 0 -26.220242 8.903336 -30.044619 20.385818c-4.924143 14.784485 9.192259 37.98163 24.679789 39.7034c37.74307 4.1959534 79.87662 -23.89862 98.71654 -56.871384c15.950378 -27.915588 28.037674 -58.6062 34.338593 -90.13385c3.5858917 -17.94265 12.474213 -38.358658 4.291336 -54.72441c-7.3964233 -14.792824 -29.828064 -20.961525 -46.14174 -18.24147c-10.98793 1.8320694 -21.150688 13.626247 -22.532806 24.679787c-2.6982803 21.57965 17.996567 45.705254 38.629913 52.57743c44.93712 14.966827 146.34059 -16.108398 128.76115 -60.089237c-4.061249 -10.160591 -22.911621 -12.240215 -32.188965 -6.43832c-14.378555 8.992088 -21.501556 28.24057 -23.606308 45.068237c-3.644333 29.13684 2.8155212 59.496674 -4.2939606 87.98688c-6.564377 26.305817 -24.033966 53.332947 -48.286087 65.45407c-22.771698 11.381195 -58.18258 12.636322 -76.18372 -5.3648376c-11.991127 -11.991119 -26.933609 -28.437225 -23.6063 -45.065613c6.610176 -33.034744 67.17392 6.438324 100.86351 6.438324" fill-rule="evenodd"/><path stroke="#ef7d2b" stroke-width="16.0" stroke-linejoin="round" stroke-linecap="butt" d="m59.413143 200.91862c-12.102623 0 -26.220242 8.903336 -30.044619 20.385818c-4.924143 14.784485 9.192259 37.98163 24.679789 39.7034c37.74307 4.1959534 79.87662 -23.89862 98.71654 -56.871384c15.950378 -27.915588 28.037674 -58.6062 34.338593 -90.13385c3.5858917 -17.94265 12.474213 -38.358658 4.291336 -54.72441c-7.3964233 -14.792824 -29.828064 -20.961525 -46.14174 -18.24147c-10.98793 1.8320694 -21.150688 13.626247 -22.532806 24.679787c-2.6982803 21.57965 17.996567 45.705254 38.629913 52.57743c44.93712 14.966827 146.34059 -16.108398 128.76115 -60.089237c-4.061249 -10.160591 -22.911621 -12.240215 -32.188965 -6.43832c-14.378555 8.992088 -21.501556 28.24057 -23.606308 45.068237c-3.644333 29.13684 2.8155212 59.496674 -4.2939606 87.98688c-6.564377 26.305817 -24.033966 53.332947 -48.286087 65.45407c-22.771698 11.381195 -58.18258 12.636322 -76.18372 -5.3648376c-11.991127 -11.991119 -26.933609 -28.437225 -23.6063 -45.065613c6.610176 -33.034744 67.17392 6.438324 100.86351 6.438324" fill-rule="evenodd"/><path fill="#000000" fill-opacity="0.0" d="m233.53879 144.66205c21.52095 -21.520935 77.598145 -22.932953 91.20474 4.291336c9.847809 19.703705 -35.341095 43.58513 -55.795288 35.409454c-4.1615295 -1.6633911 -8.923584 -8.07373 -6.438324 -11.803146c9.158356 -13.743118 35.534668 3.3456726 47.212616 15.023621c11.645142 11.645157 9.493408 37.70967 -2.1470032 49.359573c-21.27951 21.29689 -59.85318 22.3228 -89.06036 15.020996c-18.48175 -4.6204376 -31.859833 -25.511032 -36.48294 -43.992126c-2.7447662 -10.972397 16.806992 -21.534164 27.897644 -19.314957c9.476501 1.896225 14.496231 12.8776245 22.53543 18.24147c8.462555 5.6463013 19.871338 5.3648376 30.044617 5.3648376" fill-rule="evenodd"/><path stroke="#ef7d2b" stroke-width="16.0" stroke-linejoin="round" stroke-linecap="butt" d="m233.53879 144.66205c21.52095 -21.520935 77.598145 -22.932953 91.20474 4.291336c9.847809 19.703705 -35.341095 43.58513 -55.795288 35.409454c-4.1615295 -1.6633911 -8.923584 -8.07373 -6.438324 -11.803146c9.158356 -13.743118 35.534668 3.3456726 47.212616 15.023621c11.645142 11.645157 9.493408 37.70967 -2.1470032 49.359573c-21.27951 21.29689 -59.85318 22.3228 -89.06036 15.020996c-18.48175 -4.6204376 -31.859833 -25.511032 -36.48294 -43.992126c-2.7447662 -10.972397 16.806992 -21.534164 27.897644 -19.314957c9.476501 1.896225 14.496231 12.8776245 22.53543 18.24147c8.462555 5.6463013 19.871338 5.3648376 30.044617 5.3648376" fill-rule="evenodd"/></g></svg>