<svg version="1.1" viewBox="0.0 0.0 421.12860892388454 405.16010498687666" fill="none" stroke="none" stroke-linecap="square" stroke-miterlimit="10" xmlns:xlink="http://www.w3.org/1999/xlink" xmlns="http://www.w3.org/2000/svg"><clipPath id="p.0"><path d="m0 0l421.1286 0l0 405.1601l-421.1286 0l0 -405.1601z" clip-rule="nonzero"/></clipPath><g clip-path="url(#p.0)"><path fill="#000000" fill-opacity="0.0" d="m0 0l421.1286 0l0 405.1601l-421.1286 0z" fill-rule="evenodd"/><path fill="#000000" fill-opacity="0.0" d="m269.43607 181.75366c22.562561 -22.216064 81.35388 -23.67369 95.61905 4.429947c10.324463 20.340134 -37.051605 44.99292 -58.49579 36.553177c-4.3629456 -1.7171173 -9.355469 -8.334503 -6.749939 -12.184387c9.601624 -14.187027 37.254547 3.4537354 49.49771 15.508881c12.208771 12.021301 9.952911 38.927704 -2.2509155 50.953888c-22.309448 21.984772 -62.75006 23.043823 -93.37088 15.506195c-19.376266 -4.769684 -33.401855 -26.335052 -38.24872 -45.413086c-2.8776245 -11.3267975 17.620453 -22.229721 29.247894 -19.938828c9.93515 1.9574738 15.197845 13.293564 23.62613 18.830673c8.872162 5.8286743 20.83313 5.538101 31.49878 5.538101" fill-rule="evenodd"/><path stroke="#999999" stroke-width="16.0" stroke-linejoin="round" stroke-linecap="butt" d="m269.43607 181.75366c22.562561 -22.216064 81.35388 -23.67369 95.61905 4.429947c10.324463 20.340134 -37.051605 44.99292 -58.49579 36.553177c-4.3629456 -1.7171173 -9.355469 -8.334503 -6.749939 -12.184387c9.601624 -14.187027 37.254547 3.4537354 49.49771 15.508881c12.208771 12.021301 9.952911 38.927704 -2.2509155 50.953888c-22.309448 21.984772 -62.75006 23.043823 -93.37088 15.506195c-19.376266 -4.769684 -33.401855 -26.335052 -38.24872 -45.413086c-2.8776245 -11.3267975 17.620453 -22.229721 29.247894 -19.938828c9.93515 1.9574738 15.197845 13.293564 23.62613 18.830673c8.872162 5.8286743 20.83313 5.538101 31.49878 5.538101" fill-rule="evenodd"/><path fill="#000000" fill-opacity="0.0" d="m91.40807 239.83209c-12.440285 0 -26.95179 9.0529175 -30.882866 20.728302c-5.0615273 15.032867 9.448723 38.61975 25.368355 40.370453c38.796104 4.266449 82.10517 -24.30014 101.470726 -57.826843c16.395386 -28.384567 28.819931 -59.59079 35.29663 -91.6481c3.6859436 -18.244095 12.82225 -39.003082 4.411072 -55.643784c-7.602768 -15.041344 -30.660263 -21.313675 -47.429092 -18.547928c-11.294495 1.8628464 -21.740799 13.855171 -23.161469 25.094414c-2.7735596 21.942184 18.498672 46.473106 39.707687 53.46073c46.190872 15.218262 150.4235 -16.379028 132.3536 -61.09874c-4.1745605 -10.331291 -23.550873 -12.445854 -33.087067 -6.546486c-14.779694 9.143158 -22.10144 28.715012 -24.264923 45.825386c-3.7460022 29.626343 2.8940735 60.496216 -4.4137573 89.46506c-6.747528 26.747742 -24.704514 54.22896 -49.63327 66.553696c-23.407028 11.572418 -59.805862 12.848602 -78.30925 -5.454956c-12.325676 -12.192566 -27.685051 -28.914978 -24.264908 -45.822723c6.7946014 -33.58972 69.048065 6.5464935 103.67761 6.5464935" fill-rule="evenodd"/><path stroke="#999999" stroke-width="16.0" stroke-linejoin="round" stroke-linecap="butt" d="m91.40807 239.83209c-12.440285 0 -26.95179 9.0529175 -30.882866 20.728302c-5.0615273 15.032867 9.448723 38.61975 25.368355 40.370453c38.796104 4.266449 82.10517 -24.30014 101.470726 -57.826843c16.395386 -28.384567 28.819931 -59.59079 35.29663 -91.6481c3.6859436 -18.244095 12.82225 -39.003082 4.411072 -55.643784c-7.602768 -15.041344 -30.660263 -21.313675 -47.429092 -18.547928c-11.294495 1.8628464 -21.740799 13.855171 -23.161469 25.094414c-2.7735596 21.942184 18.498672 46.473106 39.707687 53.46073c46.190872 15.218262 150.4235 -16.379028 132.3536 -61.09874c-4.1745605 -10.331291 -23.550873 -12.445854 -33.087067 -6.546486c-14.779694 9.143158 -22.10144 28.715012 -24.264923 45.825386c-3.7460022 29.626343 2.8940735 60.496216 -4.4137573 89.46506c-6.747528 26.747742 -24.704514 54.22896 -49.63327 66.553696c-23.407028 11.572418 -59.805862 12.848602 -78.30925 -5.454956c-12.325676 -12.192566 -27.685051 -28.914978 -24.264908 -45.822723c6.7946014 -33.58972 69.048065 6.5464935 103.67761 6.5464935" fill-rule="evenodd"/><path fill="#000000" fill-opacity="0.0" d="m86.50238 231.93044c-12.102623 0 -26.220242 8.903336 -30.044617 20.385818c-4.9241447 14.784485 9.192261 37.98163 24.679787 39.7034c37.743073 4.1959534 79.87661 -23.89862 98.716545 -56.871384c15.950363 -27.915588 28.037674 -58.6062 34.338577 -90.13385c3.5858917 -17.94265 12.474213 -38.358658 4.291336 -54.72441c-7.396408 -14.792824 -29.828064 -20.961525 -46.14174 -18.24147c-10.987915 1.8320694 -21.15068 13.626251 -22.532806 24.679794c-2.6982727 21.579643 17.996582 45.705246 38.62993 52.577423c44.93712 14.966827 146.34058 -16.108398 128.76114 -60.08924c-4.061249 -10.1605835 -22.91159 -12.2402115 -32.188965 -6.4383163c-14.37854 8.992088 -21.501556 28.24057 -23.606293 45.068237c-3.6443481 29.13684 2.8155212 59.496674 -4.293976 87.98688c-6.564377 26.305817 -24.033966 53.332947 -48.286087 65.45407c-22.771698 11.381195 -58.18257 12.636322 -76.183716 -5.3648376c-11.991127 -11.991119 -26.933609 -28.437225 -23.606308 -45.065613c6.6101837 -33.034744 67.17392 6.438324 100.863525 6.438324" fill-rule="evenodd"/><path stroke="#ffffff" stroke-width="16.0" stroke-linejoin="round" stroke-linecap="butt" d="m86.50238 231.93044c-12.102623 0 -26.220242 8.903336 -30.044617 20.385818c-4.9241447 14.784485 9.192261 37.98163 24.679787 39.7034c37.743073 4.1959534 79.87661 -23.89862 98.716545 -56.871384c15.950363 -27.915588 28.037674 -58.6062 34.338577 -90.13385c3.5858917 -17.94265 12.474213 -38.358658 4.291336 -54.72441c-7.396408 -14.792824 -29.828064 -20.961525 -46.14174 -18.24147c-10.987915 1.8320694 -21.15068 13.626251 -22.532806 24.679794c-2.6982727 21.579643 17.996582 45.705246 38.62993 52.577423c44.93712 14.966827 146.34058 -16.108398 128.76114 -60.08924c-4.061249 -10.1605835 -22.91159 -12.2402115 -32.188965 -6.4383163c-14.37854 8.992088 -21.501556 28.24057 -23.606293 45.068237c-3.6443481 29.13684 2.8155212 59.496674 -4.293976 87.98688c-6.564377 26.305817 -24.033966 53.332947 -48.286087 65.45407c-22.771698 11.381195 -58.18257 12.636322 -76.183716 -5.3648376c-11.991127 -11.991119 -26.933609 -28.437225 -23.606308 -45.065613c6.6101837 -33.034744 67.17392 6.438324 100.863525 6.438324" fill-rule="evenodd"/><path fill="#000000" fill-opacity="0.0" d="m260.62802 175.67386c21.520966 -21.520935 77.598145 -22.932953 91.20474 4.291336c9.847839 19.703705 -35.341095 43.58513 -55.795288 35.409454c-4.1615295 -1.6633911 -8.923584 -8.07373 -6.438324 -11.803146c9.158356 -13.743118 35.534668 3.3456726 47.212616 15.023621c11.645142 11.645172 9.493439 37.709656 -2.1470032 49.35959c-21.27951 21.296875 -59.85318 22.322784 -89.06035 15.020996c-18.48175 -4.620453 -31.859848 -25.511047 -36.48294 -43.992126c-2.7447815 -10.972412 16.806992 -21.53418 27.897629 -19.314972c9.476501 1.896225 14.496231 12.8776245 22.53543 18.24147c8.462555 5.6463165 19.871338 5.3648376 30.044617 5.3648376" fill-rule="evenodd"/><path stroke="#ffffff" stroke-width="16.0" stroke-linejoin="round" stroke-linecap="butt" d="m260.62802 175.67386c21.520966 -21.520935 77.598145 -22.932953 91.20474 4.291336c9.847839 19.703705 -35.341095 43.58513 -55.795288 35.409454c-4.1615295 -1.6633911 -8.923584 -8.07373 -6.438324 -11.803146c9.158356 -13.743118 35.534668 3.3456726 47.212616 15.023621c11.645142 11.645172 9.493439 37.709656 -2.1470032 49.35959c-21.27951 21.296875 -59.85318 22.322784 -89.06035 15.020996c-18.48175 -4.620453 -31.859848 -25.511047 -36.48294 -43.992126c-2.7447815 -10.972412 16.806992 -21.53418 27.897629 -19.314972c9.476501 1.896225 14.496231 12.8776245 22.53543 18.24147c8.462555 5.6463165 19.871338 5.3648376 30.044617 5.3648376" fill-rule="evenodd"/></g></svg>